<?xml version="1.0" encoding="UTF-8" ?>
<!DOCTYPE svg PUBLIC "-//W3C//DTD SVG 1.1//EN" "http://www.w3.org/Graphics/SVG/1.1/DTD/svg11.dtd">
<svg width="139pt" height="137pt" viewBox="0 0 139 137" version="1.1" xmlns="http://www.w3.org/2000/svg">
<g id="#262626ff">
</g>
<g id="#de335dff">
<path fill="#de335d" opacity="1.00" d=" M 60.99 6.78 C 76.72 3.78 93.51 7.42 106.83 16.23 C 123.91 27.41 135.02 47.17 135.25 67.63 C 128.84 62.33 123.62 55.77 117.18 50.49 C 113.50 44.83 105.46 43.23 99.91 47.11 C 93.28 40.55 86.82 33.80 80.04 27.39 C 78.31 27.39 76.59 27.38 74.87 27.37 C 74.86 25.46 74.86 23.54 74.85 21.62 C 73.04 21.62 71.23 21.61 69.42 21.60 C 69.40 23.53 69.39 25.45 69.37 27.38 C 67.46 27.38 65.55 27.38 63.64 27.39 C 63.74 29.11 63.79 30.84 63.95 32.56 C 65.62 34.46 67.51 36.15 69.45 37.77 C 69.42 38.42 69.34 39.71 69.31 40.36 C 70.86 42.12 72.69 43.61 74.68 44.86 C 73.75 45.46 72.85 46.08 71.94 46.70 C 67.56 42.65 61.14 40.09 55.25 42.09 C 51.65 43.06 48.82 45.58 46.24 48.13 C 42.04 45.70 36.73 43.46 32.08 46.09 C 26.32 48.41 23.61 55.51 26.00 61.18 C 29.93 71.00 34.36 80.62 38.29 90.45 C 39.52 92.07 40.90 93.57 42.26 95.09 C 40.95 95.05 39.63 95.01 38.32 94.98 C 38.32 97.38 38.32 99.79 38.32 102.20 C 48.25 112.16 58.22 122.09 68.17 132.04 C 40.09 131.12 14.79 108.59 9.94 81.03 C 6.70 64.75 10.28 47.26 19.67 33.57 C 29.11 19.60 44.31 9.54 60.99 6.78 Z" />
</g>
<g id="#ffffffff">
<path fill="#ffffff" opacity="1.00" d=" M 69.37 27.38 C 69.39 25.45 69.40 23.53 69.42 21.60 C 71.23 21.61 73.04 21.62 74.85 21.62 C 74.86 23.54 74.86 25.46 74.87 27.37 C 76.59 27.38 78.31 27.39 80.04 27.39 C 80.01 29.09 79.99 30.79 79.97 32.49 C 78.20 32.49 76.43 32.49 74.66 32.49 C 74.65 35.09 74.63 37.69 74.62 40.30 C 72.85 40.30 71.08 40.32 69.31 40.36 C 69.34 39.71 69.42 38.42 69.45 37.77 C 69.51 36.00 69.56 34.24 69.58 32.47 C 67.71 32.49 65.83 32.52 63.95 32.56 C 63.79 30.84 63.74 29.11 63.64 27.39 C 65.55 27.38 67.46 27.38 69.37 27.38 Z" />
<path fill="#ffffff" opacity="1.00" d=" M 55.25 42.09 C 61.14 40.09 67.56 42.65 71.94 46.70 C 72.85 46.08 73.75 45.46 74.68 44.86 C 78.72 42.13 83.98 40.70 88.74 42.30 C 92.41 43.30 95.25 45.97 97.87 48.60 C 98.38 48.22 99.40 47.48 99.91 47.11 C 105.46 43.23 113.50 44.83 117.18 50.49 C 118.86 53.68 119.24 57.53 117.93 60.92 C 114.03 70.84 109.34 80.44 105.59 90.42 C 83.16 90.50 60.72 90.44 38.29 90.45 C 34.36 80.62 29.93 71.00 26.00 61.18 C 23.61 55.51 26.32 48.41 32.08 46.09 C 36.73 43.46 42.04 45.70 46.24 48.13 C 48.82 45.58 51.65 43.06 55.25 42.09 M 50.81 52.65 C 48.85 55.49 50.45 58.81 51.07 61.80 C 52.56 69.45 54.45 77.02 55.92 84.68 C 60.29 84.64 64.65 84.66 69.02 84.65 C 69.13 74.63 69.23 64.55 68.59 54.58 C 67.20 46.20 54.15 45.31 50.81 52.65 M 77.47 50.41 C 74.24 53.85 75.35 58.78 75.18 63.04 C 74.94 70.26 74.72 77.49 74.97 84.72 C 79.28 84.62 83.59 84.66 87.90 84.66 C 89.89 75.13 92.29 65.66 93.94 56.07 C 93.97 47.97 82.45 44.94 77.47 50.41 M 33.16 52.12 C 30.18 53.65 29.26 57.62 30.71 60.51 C 34.41 68.67 37.98 76.89 41.76 85.01 C 44.60 85.00 47.43 85.00 50.27 85.00 C 48.60 75.44 46.36 65.98 44.40 56.48 C 43.84 51.34 37.09 49.31 33.16 52.12 M 99.76 55.49 C 97.62 65.19 95.68 74.94 93.53 84.64 C 96.43 84.65 99.33 84.66 102.22 84.67 C 105.79 76.46 109.53 68.33 113.06 60.12 C 114.54 57.18 113.57 53.06 110.48 51.60 C 106.80 49.49 100.63 50.83 99.76 55.49 Z" />
<path fill="#ffffff" opacity="1.00" d=" M 38.32 94.98 C 39.63 95.01 40.95 95.05 42.26 95.09 C 63.37 95.31 84.49 95.11 105.60 95.19 C 105.61 97.54 105.52 99.90 105.51 102.25 C 83.12 102.12 60.72 102.22 38.32 102.20 C 38.32 99.79 38.32 97.38 38.32 94.98 Z" />
</g>
<g id="#b90f3eff">
<path fill="#b90f3e" opacity="1.00" d=" M 80.04 27.39 C 86.82 33.80 93.28 40.55 99.91 47.11 C 99.40 47.48 98.38 48.22 97.87 48.60 C 95.25 45.97 92.41 43.30 88.74 42.30 C 83.98 40.70 78.72 42.13 74.68 44.86 C 72.69 43.61 70.86 42.12 69.31 40.36 C 71.08 40.32 72.85 40.30 74.62 40.30 C 74.63 37.69 74.65 35.09 74.66 32.49 C 76.43 32.49 78.20 32.49 79.97 32.49 C 79.99 30.79 80.01 29.09 80.04 27.39 Z" />
<path fill="#b90f3e" opacity="1.00" d=" M 63.95 32.56 C 65.83 32.52 67.71 32.49 69.58 32.47 C 69.56 34.24 69.51 36.00 69.45 37.77 C 67.51 36.15 65.62 34.46 63.95 32.56 Z" />
<path fill="#b90f3e" opacity="1.00" d=" M 50.81 52.65 C 54.15 45.31 67.20 46.20 68.59 54.58 C 69.23 64.55 69.13 74.63 69.02 84.65 C 64.65 84.66 60.29 84.64 55.92 84.68 C 54.45 77.02 52.56 69.45 51.07 61.80 C 50.45 58.81 48.85 55.49 50.81 52.65 Z" />
<path fill="#b90f3e" opacity="1.00" d=" M 77.47 50.41 C 82.45 44.94 93.97 47.97 93.94 56.07 C 92.29 65.66 89.89 75.13 87.90 84.66 C 83.59 84.66 79.28 84.62 74.97 84.72 C 74.72 77.49 74.94 70.26 75.18 63.04 C 75.35 58.78 74.24 53.85 77.47 50.41 Z" />
<path fill="#b90f3e" opacity="1.00" d=" M 33.16 52.12 C 37.09 49.31 43.84 51.34 44.40 56.48 C 46.36 65.98 48.60 75.44 50.27 85.00 C 47.43 85.00 44.60 85.00 41.76 85.01 C 37.98 76.89 34.41 68.67 30.71 60.51 C 29.26 57.62 30.18 53.65 33.16 52.12 Z" />
<path fill="#b90f3e" opacity="1.00" d=" M 99.76 55.49 C 100.63 50.83 106.80 49.49 110.48 51.60 C 113.57 53.06 114.54 57.18 113.06 60.12 C 109.53 68.33 105.79 76.46 102.22 84.67 C 99.33 84.66 96.43 84.65 93.53 84.64 C 95.68 74.94 97.62 65.19 99.76 55.49 Z" />
<path fill="#b90f3e" opacity="1.00" d=" M 117.18 50.49 C 123.62 55.77 128.84 62.33 135.25 67.63 C 135.61 82.79 130.40 97.99 120.56 109.56 C 107.98 124.80 87.94 133.65 68.17 132.04 C 58.22 122.09 48.25 112.16 38.32 102.20 C 60.72 102.22 83.12 102.12 105.51 102.25 C 105.52 99.90 105.61 97.54 105.60 95.19 C 84.49 95.11 63.37 95.31 42.26 95.09 C 40.90 93.57 39.52 92.07 38.29 90.45 C 60.72 90.44 83.16 90.50 105.59 90.42 C 109.34 80.44 114.03 70.84 117.93 60.92 C 119.24 57.53 118.86 53.68 117.18 50.49 Z" />
</g>
</svg>
