<?xml version="1.0" encoding="UTF-8" ?>
<!DOCTYPE svg PUBLIC "-//W3C//DTD SVG 1.1//EN" "http://www.w3.org/Graphics/SVG/1.1/DTD/svg11.dtd">
<svg width="134pt" height="137pt" viewBox="0 0 134 137" version="1.1" xmlns="http://www.w3.org/2000/svg">
<g id="#262626ff">
</g>
<g id="#5ab981ff">
<path fill="#5ab981" opacity="1.00" d=" M 55.95 4.84 C 71.95 1.71 89.09 5.39 102.57 14.50 C 119.15 25.47 129.86 44.58 130.64 64.45 C 124.65 59.72 119.99 53.57 114.10 48.73 C 113.80 49.33 113.21 50.53 112.92 51.13 C 112.95 50.66 113.02 49.71 113.06 49.23 C 110.87 50.56 108.37 51.77 107.05 54.07 C 106.69 55.62 106.81 57.23 106.77 58.82 C 104.92 56.25 101.53 55.17 98.63 56.64 C 95.99 58.28 95.84 61.59 95.80 64.37 L 95.22 64.01 C 94.50 63.32 93.79 62.62 93.08 61.92 C 92.07 60.91 91.06 59.89 89.94 59.00 C 89.11 58.35 88.25 57.73 87.37 57.14 C 86.88 57.74 85.89 58.95 85.39 59.56 C 83.60 59.45 82.17 58.32 80.86 57.19 C 79.92 56.17 78.97 55.15 78.06 54.10 C 76.14 51.88 74.36 49.23 71.33 48.49 C 69.69 47.30 68.47 45.67 67.37 44.00 C 65.68 46.07 63.57 47.93 62.58 50.48 C 61.95 52.28 63.11 54.00 63.79 55.61 C 61.23 53.77 57.09 53.04 54.87 55.74 C 53.26 57.50 53.84 59.99 54.38 62.05 C 52.70 62.04 51.00 62.09 49.33 62.08 L 49.24 61.51 C 49.06 59.89 48.57 56.81 46.35 57.30 C 45.24 58.51 44.91 60.17 44.35 61.65 C 43.29 61.65 42.24 61.68 41.19 61.74 C 40.30 61.00 39.40 60.28 38.54 59.53 C 37.28 58.10 36.21 56.02 34.01 56.08 C 31.87 55.60 30.01 56.89 28.26 57.89 C 29.01 52.85 23.89 50.93 20.85 48.10 C 24.30 60.50 27.72 72.92 30.71 85.44 C 31.02 85.48 31.65 85.55 31.96 85.59 L 31.06 87.42 C 31.09 88.52 31.18 89.63 31.32 90.74 C 43.95 104.17 57.47 116.77 70.21 130.11 C 53.31 131.12 36.20 124.75 24.02 113.02 C 11.45 101.32 3.86 84.24 4.20 67.02 C 3.94 54.56 7.87 42.13 14.84 31.83 C 24.18 17.82 39.33 7.73 55.95 4.84 Z" />
<path fill="#5ab981" opacity="1.00" d=" M 60.40 62.56 C 61.95 63.83 63.53 65.06 65.11 66.29 C 64.67 68.53 63.69 70.60 62.15 72.28 C 60.64 70.89 59.10 69.52 57.80 67.92 C 57.15 66.65 56.55 65.35 55.86 64.10 C 56.67 64.22 58.28 64.47 59.09 64.59 C 59.42 64.08 60.07 63.07 60.40 62.56 Z" />
</g>
<g id="#ffffffff">
<path fill="#ffffff" opacity="1.00" d=" M 62.58 50.48 C 63.57 47.93 65.68 46.07 67.37 44.00 C 68.47 45.67 69.69 47.30 71.33 48.49 C 73.81 53.44 68.94 57.44 67.99 62.08 C 69.48 59.39 70.40 55.93 73.40 54.50 C 74.92 54.12 76.50 54.20 78.06 54.10 C 78.97 55.15 79.92 56.17 80.86 57.19 C 81.10 59.15 81.60 61.52 79.93 63.03 C 78.73 64.44 76.70 63.97 75.08 64.25 C 75.22 62.63 76.80 60.14 74.66 59.21 C 71.87 58.29 69.67 61.46 69.82 63.97 C 69.93 66.56 69.65 70.07 72.07 71.68 C 74.35 71.26 75.70 68.90 77.93 68.33 C 79.67 69.32 81.04 71.08 82.98 71.66 C 85.72 70.63 87.39 67.98 86.74 65.03 C 87.34 65.10 88.52 65.23 89.11 65.30 C 88.55 68.42 90.58 70.51 92.94 72.08 C 94.57 70.74 96.07 69.15 98.03 68.30 C 100.04 68.97 101.43 70.71 103.05 72.00 C 106.26 70.54 107.54 66.30 105.55 63.36 C 104.66 61.75 102.54 62.21 101.05 61.78 C 101.16 63.29 101.28 64.81 101.40 66.33 C 99.51 65.74 97.63 65.14 95.80 64.37 C 95.84 61.59 95.99 58.28 98.63 56.64 C 101.53 55.17 104.92 56.25 106.77 58.82 C 106.81 57.23 106.69 55.62 107.05 54.07 C 108.37 51.77 110.87 50.56 113.06 49.23 C 113.02 49.71 112.95 50.66 112.92 51.13 C 109.38 62.49 106.87 74.13 104.08 85.69 C 80.05 85.47 56.00 85.67 31.96 85.59 C 31.65 85.55 31.02 85.48 30.71 85.44 C 27.72 72.92 24.30 60.50 20.85 48.10 C 23.89 50.93 29.01 52.85 28.26 57.89 C 30.01 56.89 31.87 55.60 34.01 56.08 C 36.21 56.02 37.28 58.10 38.54 59.53 C 38.35 61.18 38.93 63.25 37.61 64.57 C 36.51 65.85 34.67 65.76 33.17 66.18 C 33.44 64.73 33.78 63.30 34.04 61.86 C 32.44 62.24 30.27 61.66 29.20 63.26 C 27.30 66.03 28.12 71.07 31.90 71.71 C 33.68 70.75 35.01 68.88 36.98 68.36 C 38.89 69.23 40.40 70.77 42.04 72.05 C 44.64 70.30 47.09 67.86 45.71 64.48 C 45.17 64.39 44.08 64.22 43.54 64.13 C 43.12 64.96 42.29 66.63 41.88 67.47 C 40.30 65.79 40.26 63.73 41.19 61.74 C 42.24 61.68 43.29 61.65 44.35 61.65 C 44.91 60.17 45.24 58.51 46.35 57.30 C 48.57 56.81 49.06 59.89 49.24 61.51 C 47.09 64.77 47.69 70.47 51.98 71.62 C 54.14 70.87 55.82 69.07 57.80 67.92 C 59.10 69.52 60.64 70.89 62.15 72.28 C 63.69 70.60 64.67 68.53 65.11 66.29 C 64.97 63.87 65.11 60.73 62.63 59.37 C 60.42 57.90 56.70 61.43 60.40 62.56 C 60.07 63.07 59.42 64.08 59.09 64.59 C 58.28 64.47 56.67 64.22 55.86 64.10 L 54.76 62.39 C 54.29 63.56 53.83 64.74 53.40 65.93 C 52.79 66.34 52.14 66.71 51.47 67.03 C 51.44 66.55 51.38 65.59 51.35 65.10 C 49.91 64.66 49.22 63.47 49.33 62.08 C 51.00 62.09 52.70 62.04 54.38 62.05 C 53.84 59.99 53.26 57.50 54.87 55.74 C 57.09 53.04 61.23 53.77 63.79 55.61 C 63.11 54.00 61.95 52.28 62.58 50.48 M 67.33 71.82 C 66.57 73.01 65.91 74.25 65.30 75.53 C 64.35 75.85 63.41 76.21 62.48 76.60 C 61.47 78.06 62.76 79.52 64.08 80.17 C 64.50 79.50 65.36 78.15 65.79 77.48 C 65.90 79.30 66.05 81.33 63.88 81.95 C 65.78 82.95 69.84 84.07 70.28 81.13 C 69.79 81.08 68.80 80.98 68.31 80.94 C 68.54 79.84 68.77 78.75 69.00 77.65 C 69.49 78.32 70.48 79.66 70.98 80.32 C 73.29 78.53 72.40 75.76 69.59 75.55 C 68.86 74.29 68.12 73.04 67.33 71.82 Z" />
<path fill="#ffffff" opacity="1.00" d=" M 87.37 57.14 C 88.25 57.73 89.11 58.35 89.94 59.00 C 89.92 60.53 89.88 62.06 89.83 63.59 C 87.12 64.61 85.20 62.13 85.39 59.56 C 85.89 58.95 86.88 57.74 87.37 57.14 Z" />
<path fill="#ffffff" opacity="1.00" d=" M 83.35 67.13 C 80.97 66.51 80.25 62.46 83.03 62.04 C 85.31 61.20 86.71 64.03 88.28 64.98 C 87.21 64.82 85.06 64.49 83.99 64.32 C 83.83 65.02 83.51 66.43 83.35 67.13 Z" />
<path fill="#ffffff" opacity="1.00" d=" M 90.04 62.21 C 90.80 62.14 92.32 61.99 93.08 61.92 C 93.79 62.62 94.50 63.32 95.22 64.01 C 94.37 65.15 93.52 66.29 92.66 67.42 C 92.39 66.53 91.86 64.75 91.59 63.86 L 90.09 65.71 C 90.08 64.54 90.06 63.37 90.04 62.21 Z" />
<path fill="#ffffff" opacity="1.00" d=" M 31.32 90.74 C 31.18 89.63 31.09 88.52 31.06 87.42 C 36.34 88.03 41.67 87.72 46.97 87.77 C 65.35 87.82 83.74 87.70 102.13 87.82 C 103.78 87.44 103.34 89.68 103.93 90.58 C 79.73 90.76 55.52 90.46 31.32 90.74 Z" />
</g>
<g id="#3e975fff">
<path fill="#3e975f" opacity="1.00" d=" M 71.33 48.49 C 74.36 49.23 76.14 51.88 78.06 54.10 C 76.50 54.20 74.92 54.12 73.40 54.50 C 70.40 55.93 69.48 59.39 67.99 62.08 C 68.94 57.44 73.81 53.44 71.33 48.49 Z" />
<path fill="#3e975f" opacity="1.00" d=" M 114.10 48.73 C 119.99 53.57 124.65 59.72 130.64 64.45 C 131.18 78.65 126.83 93.01 118.35 104.43 C 107.27 119.63 89.09 129.67 70.21 130.11 C 57.47 116.77 43.95 104.17 31.32 90.74 C 55.52 90.46 79.73 90.76 103.93 90.58 C 103.34 89.68 103.78 87.44 102.13 87.82 C 83.74 87.70 65.35 87.82 46.97 87.77 C 41.67 87.72 36.34 88.03 31.06 87.42 L 31.96 85.59 C 56.00 85.67 80.05 85.47 104.08 85.69 C 106.87 74.13 109.38 62.49 112.92 51.13 C 113.21 50.53 113.80 49.33 114.10 48.73 Z" />
<path fill="#3e975f" opacity="1.00" d=" M 80.86 57.19 C 82.17 58.32 83.60 59.45 85.39 59.56 C 85.20 62.13 87.12 64.61 89.83 63.59 C 89.88 62.06 89.92 60.53 89.94 59.00 C 91.06 59.89 92.07 60.91 93.08 61.92 C 92.32 61.99 90.80 62.14 90.04 62.21 C 90.06 63.37 90.08 64.54 90.09 65.71 L 91.59 63.86 C 91.86 64.75 92.39 66.53 92.66 67.42 C 93.52 66.29 94.37 65.15 95.22 64.01 L 95.80 64.37 C 97.63 65.14 99.51 65.74 101.40 66.33 C 101.28 64.81 101.16 63.29 101.05 61.78 C 102.54 62.21 104.66 61.75 105.55 63.36 C 107.54 66.30 106.26 70.54 103.05 72.00 C 101.43 70.71 100.04 68.97 98.03 68.30 C 96.07 69.15 94.57 70.74 92.94 72.08 C 90.58 70.51 88.55 68.42 89.11 65.30 C 88.52 65.23 87.34 65.10 86.74 65.03 C 87.39 67.98 85.72 70.63 82.98 71.66 C 81.04 71.08 79.67 69.32 77.93 68.33 C 75.70 68.90 74.35 71.26 72.07 71.68 C 69.65 70.07 69.93 66.56 69.82 63.97 C 69.67 61.46 71.87 58.29 74.66 59.21 C 76.80 60.14 75.22 62.63 75.08 64.25 C 76.70 63.97 78.73 64.44 79.93 63.03 C 81.60 61.52 81.10 59.15 80.86 57.19 M 83.35 67.13 C 83.51 66.43 83.83 65.02 83.99 64.32 C 85.06 64.49 87.21 64.82 88.28 64.98 C 86.71 64.03 85.31 61.20 83.03 62.04 C 80.25 62.46 80.97 66.51 83.35 67.13 Z" />
<path fill="#3e975f" opacity="1.00" d=" M 60.40 62.56 C 56.70 61.43 60.42 57.90 62.63 59.37 C 65.11 60.73 64.97 63.87 65.11 66.29 C 63.53 65.06 61.95 63.83 60.40 62.56 Z" />
<path fill="#3e975f" opacity="1.00" d=" M 38.54 59.53 C 39.40 60.28 40.30 61.00 41.19 61.74 C 40.26 63.73 40.30 65.79 41.88 67.47 C 42.29 66.63 43.12 64.96 43.54 64.13 C 44.08 64.22 45.17 64.39 45.71 64.48 C 47.09 67.86 44.64 70.30 42.04 72.05 C 40.40 70.77 38.89 69.23 36.98 68.36 C 35.01 68.88 33.68 70.75 31.90 71.71 C 28.12 71.07 27.30 66.03 29.20 63.26 C 30.27 61.66 32.44 62.24 34.04 61.86 C 33.78 63.30 33.44 64.73 33.17 66.18 C 34.67 65.76 36.51 65.85 37.61 64.57 C 38.93 63.25 38.35 61.18 38.54 59.53 Z" />
<path fill="#3e975f" opacity="1.00" d=" M 51.98 71.62 C 47.69 70.47 47.09 64.77 49.24 61.51 L 49.33 62.08 C 49.22 63.47 49.91 64.66 51.35 65.10 C 51.38 65.59 51.44 66.55 51.47 67.03 C 52.14 66.71 52.79 66.34 53.40 65.93 C 53.83 64.74 54.29 63.56 54.76 62.39 L 55.86 64.10 C 56.55 65.35 57.15 66.65 57.80 67.92 C 55.82 69.07 54.14 70.87 51.98 71.62 Z" />
<path fill="#3e975f" opacity="1.00" d=" M 67.33 71.82 C 68.12 73.04 68.86 74.29 69.59 75.55 C 72.40 75.76 73.29 78.53 70.98 80.32 C 70.48 79.66 69.49 78.32 69.00 77.65 C 68.77 78.75 68.54 79.84 68.31 80.94 C 68.80 80.98 69.79 81.08 70.28 81.13 C 69.84 84.07 65.78 82.95 63.88 81.95 C 66.05 81.33 65.90 79.30 65.79 77.48 C 65.36 78.15 64.50 79.50 64.08 80.17 C 62.76 79.52 61.47 78.06 62.48 76.60 C 63.41 76.21 64.35 75.85 65.30 75.53 C 65.91 74.25 66.57 73.01 67.33 71.82 Z" />
</g>
</svg>
