<?xml version="1.0" encoding="UTF-8" ?>
<!DOCTYPE svg PUBLIC "-//W3C//DTD SVG 1.1//EN" "http://www.w3.org/Graphics/SVG/1.1/DTD/svg11.dtd">
<svg width="139pt" height="136pt" viewBox="0 0 139 136" version="1.1" xmlns="http://www.w3.org/2000/svg">
<g id="#262626ff">
</g>
<g id="#3a80a3ff">
<path fill="#3a80a3" opacity="1.00" d=" M 60.04 5.96 C 78.46 2.64 98.21 8.41 112.14 20.87 C 122.41 29.83 129.60 42.21 132.35 55.55 C 130.73 54.17 129.11 52.78 127.51 51.39 C 126.82 50.77 125.44 49.54 124.75 48.93 C 121.92 49.85 122.23 52.58 122.55 54.97 C 122.26 55.47 121.97 55.96 121.68 56.45 C 118.25 52.36 114.43 48.62 110.34 45.19 C 109.37 44.19 108.42 43.17 107.51 42.12 C 106.07 42.81 103.89 42.97 103.62 44.93 C 103.80 46.38 104.44 47.71 104.91 49.07 C 102.26 53.39 99.33 57.53 96.76 61.89 C 89.65 54.38 82.26 47.13 74.85 39.93 C 73.03 37.51 69.11 36.19 66.97 38.95 C 64.92 41.31 66.69 44.22 67.88 46.50 C 64.52 52.46 60.70 58.16 57.45 64.17 C 50.56 57.86 44.32 50.88 37.39 44.61 C 36.07 43.54 34.54 41.51 32.66 42.66 C 30.68 43.36 31.41 45.84 31.00 47.45 C 31.72 47.74 33.16 48.32 33.89 48.61 C 33.45 53.78 32.67 58.91 32.06 64.06 C 27.54 59.44 23.02 54.81 18.19 50.51 C 17.86 50.07 17.22 49.18 16.89 48.74 C 14.78 49.46 13.48 51.05 12.89 53.17 C 14.35 53.75 15.81 54.32 17.29 54.87 C 19.24 61.78 23.87 68.45 22.45 75.89 C 21.89 80.87 21.40 85.88 21.50 90.89 C 34.06 104.62 47.90 117.13 60.64 130.71 C 47.96 129.04 36.05 122.90 26.79 114.16 C 14.35 102.31 6.75 85.25 7.21 67.99 C 6.94 51.50 14.03 35.26 25.60 23.62 C 34.90 14.40 47.05 7.93 60.04 5.96 Z" />
</g>
<g id="#ffffffff">
<path fill="#ffffff" opacity="1.00" d=" M 66.97 38.95 C 69.11 36.19 73.03 37.51 74.85 39.93 C 75.04 42.31 74.12 44.48 72.81 46.40 C 77.20 53.63 81.44 60.95 85.88 68.15 C 86.79 70.01 88.93 71.18 90.93 70.22 C 93.43 67.89 94.94 64.74 96.76 61.89 C 99.33 57.53 102.26 53.39 104.91 49.07 C 104.44 47.71 103.80 46.38 103.62 44.93 C 103.89 42.97 106.07 42.81 107.51 42.12 C 108.42 43.17 109.37 44.19 110.34 45.19 C 109.15 46.63 107.87 47.98 106.51 49.26 C 108.07 56.87 108.47 64.72 110.77 72.18 C 114.68 67.14 118.18 61.79 121.68 56.45 C 121.97 55.96 122.26 55.47 122.55 54.97 C 122.23 52.58 121.92 49.85 124.75 48.93 C 125.44 49.54 126.82 50.77 127.51 51.39 C 126.86 53.32 125.27 54.43 123.44 55.14 C 121.72 60.07 119.64 64.92 118.36 69.99 C 117.97 74.72 118.71 79.45 119.06 84.16 C 118.35 84.20 116.92 84.29 116.21 84.33 C 116.11 85.36 116.03 86.40 115.97 87.44 C 116.86 87.34 118.65 87.15 119.54 87.05 C 119.52 87.96 119.49 89.79 119.48 90.70 C 86.83 91.12 54.16 90.72 21.50 90.89 C 21.40 85.88 21.89 80.87 22.45 75.89 C 23.87 68.45 19.24 61.78 17.29 54.87 C 15.81 54.32 14.35 53.75 12.89 53.17 C 13.48 51.05 14.78 49.46 16.89 48.74 C 17.22 49.18 17.86 50.07 18.19 50.51 C 17.24 55.13 20.80 58.42 23.12 61.90 C 25.53 65.33 27.83 68.85 30.51 72.09 C 31.32 69.48 31.76 66.77 32.06 64.06 C 32.67 58.91 33.45 53.78 33.89 48.61 C 33.16 48.32 31.72 47.74 31.00 47.45 C 31.41 45.84 30.68 43.36 32.66 42.66 C 34.54 41.51 36.07 43.54 37.39 44.61 C 36.75 46.07 35.99 47.47 35.20 48.85 C 39.32 55.07 43.35 61.35 47.45 67.58 C 48.40 68.73 49.29 70.60 51.03 70.51 C 54.77 70.98 55.83 66.63 57.45 64.17 C 60.70 58.16 64.52 52.46 67.88 46.50 C 66.69 44.22 64.92 41.31 66.97 38.95 M 69.35 63.45 C 66.68 64.02 65.74 68.31 68.33 69.66 C 70.18 71.24 73.30 70.15 74.01 67.92 C 74.95 65.21 72.07 62.41 69.35 63.45 M 27.48 75.60 C 24.81 75.16 25.51 79.64 27.86 78.93 C 30.11 79.10 29.62 74.84 27.48 75.60 M 34.48 75.62 C 33.33 76.43 33.91 77.91 33.81 79.06 C 35.32 78.88 37.24 79.03 37.39 76.99 C 36.81 75.80 35.75 75.25 34.48 75.62 M 41.71 78.96 C 42.50 78.90 44.10 78.77 44.90 78.70 C 44.68 77.51 45.24 75.61 43.45 75.59 C 41.36 75.05 41.45 77.63 41.71 78.96 M 50.48 75.59 C 47.84 75.83 50.04 80.87 51.91 78.74 C 53.80 77.75 52.42 74.95 50.48 75.59 M 56.86 75.76 C 57.22 77.17 57.21 78.97 58.99 79.36 C 59.82 78.77 61.19 77.55 60.37 76.46 C 59.72 75.10 57.98 75.91 56.86 75.76 M 65.01 75.65 C 65.06 76.44 65.16 78.02 65.22 78.81 C 65.99 78.82 67.54 78.83 68.31 78.83 C 68.24 77.86 68.19 76.88 68.01 75.92 C 67.03 75.68 66.01 75.69 65.01 75.65 M 72.30 76.25 C 72.61 77.10 72.96 77.94 73.34 78.77 C 74.78 79.15 76.30 78.92 76.23 77.08 C 76.07 74.89 73.55 75.78 72.30 76.25 M 81.44 75.55 C 79.42 76.46 81.17 80.63 83.00 78.72 C 85.20 77.84 83.46 74.91 81.44 75.55 M 88.51 75.32 C 88.59 76.84 88.03 78.85 90.02 79.40 C 90.47 78.97 91.37 78.12 91.82 77.69 C 92.03 75.72 89.87 75.62 88.51 75.32 M 96.72 75.65 C 95.85 77.00 96.06 79.04 97.93 79.32 C 98.67 78.53 99.40 77.72 100.09 76.90 C 99.04 76.30 98.06 75.16 96.72 75.65 M 105.44 75.55 C 103.79 75.25 103.51 78.68 104.98 78.88 C 107.22 80.54 108.37 74.91 105.44 75.55 M 112.67 75.48 C 111.21 76.54 111.75 79.88 113.91 78.85 C 116.21 78.12 114.94 74.82 112.67 75.48 M 23.00 83.87 C 22.66 84.40 21.97 85.47 21.63 86.00 C 22.25 87.53 24.44 87.92 25.38 86.50 C 25.55 84.91 24.81 83.54 23.00 83.87 M 29.35 85.76 C 29.69 86.24 30.37 87.19 30.71 87.67 C 31.63 87.08 34.40 86.75 33.05 85.06 C 32.34 82.85 30.07 84.33 29.35 85.76 M 38.24 87.75 C 40.34 87.55 41.96 85.71 40.12 83.92 C 37.45 83.27 37.24 86.06 38.24 87.75 M 45.51 87.59 C 46.58 87.35 47.71 87.23 48.70 86.72 C 49.10 85.43 48.65 83.93 47.10 83.88 C 45.05 83.88 45.56 86.28 45.51 87.59 M 53.48 87.69 C 54.66 87.30 56.14 87.26 56.84 86.05 C 56.60 84.73 55.57 83.27 54.04 84.12 C 52.78 84.89 53.60 86.54 53.48 87.69 M 63.31 87.64 C 63.70 87.18 64.48 86.27 64.87 85.81 C 64.09 84.80 63.20 83.86 61.83 83.77 C 60.53 85.47 61.14 87.39 63.31 87.64 M 69.19 83.83 C 69.18 84.73 69.15 86.54 69.14 87.44 C 70.29 87.22 71.76 87.41 72.35 86.10 C 72.76 84.12 70.40 84.19 69.19 83.83 M 77.14 84.41 C 76.06 85.22 77.19 86.72 77.23 87.77 C 78.31 87.22 79.72 87.05 80.34 85.85 C 80.01 84.66 78.25 82.88 77.14 84.41 M 85.20 84.26 C 84.01 84.90 84.85 86.53 84.57 87.58 C 85.90 87.31 87.40 87.17 88.21 85.90 C 87.69 84.96 86.43 82.87 85.20 84.26 M 92.49 87.71 C 94.02 87.39 95.36 86.62 96.39 85.46 C 95.38 84.59 94.24 84.08 92.97 83.93 C 92.18 85.05 92.53 86.44 92.49 87.71 M 100.34 87.33 C 100.99 87.35 102.30 87.38 102.96 87.40 C 103.38 86.08 103.62 84.41 101.98 83.79 C 99.78 83.80 100.35 85.84 100.34 87.33 M 108.26 87.39 C 108.89 87.38 110.15 87.36 110.79 87.34 C 111.03 86.00 111.46 84.51 109.90 83.81 C 107.61 83.59 108.28 85.91 108.26 87.39 Z" />
</g>
<g id="#005073ff">
<path fill="#005073" opacity="1.00" d=" M 74.85 39.93 C 82.26 47.13 89.65 54.38 96.76 61.89 C 94.94 64.74 93.43 67.89 90.93 70.22 C 88.93 71.18 86.79 70.01 85.88 68.15 C 81.44 60.95 77.20 53.63 72.81 46.40 C 74.12 44.48 75.04 42.31 74.85 39.93 Z" />
<path fill="#005073" opacity="1.00" d=" M 37.39 44.61 C 44.32 50.88 50.56 57.86 57.45 64.17 C 55.83 66.63 54.77 70.98 51.03 70.51 C 49.29 70.60 48.40 68.73 47.45 67.58 C 43.35 61.35 39.32 55.07 35.20 48.85 C 35.99 47.47 36.75 46.07 37.39 44.61 Z" />
<path fill="#005073" opacity="1.00" d=" M 110.34 45.19 C 114.43 48.62 118.25 52.36 121.68 56.45 C 118.18 61.79 114.68 67.14 110.77 72.18 C 108.47 64.72 108.07 56.87 106.51 49.26 C 107.87 47.98 109.15 46.63 110.34 45.19 Z" />
<path fill="#005073" opacity="1.00" d=" M 18.19 50.51 C 23.02 54.81 27.54 59.44 32.06 64.06 C 31.76 66.77 31.32 69.48 30.51 72.09 C 27.83 68.85 25.53 65.33 23.12 61.90 C 20.80 58.42 17.24 55.13 18.19 50.51 Z" />
<path fill="#005073" opacity="1.00" d=" M 127.51 51.39 C 129.11 52.78 130.73 54.17 132.35 55.55 C 135.41 69.89 133.07 85.24 126.14 98.13 C 118.91 111.81 106.41 122.55 91.88 127.80 C 82.00 131.50 71.18 132.22 60.77 130.86 L 60.64 130.71 C 47.90 117.13 34.06 104.62 21.50 90.89 C 54.16 90.72 86.83 91.12 119.48 90.70 C 119.49 89.79 119.52 87.96 119.54 87.05 C 118.65 87.15 116.86 87.34 115.97 87.44 C 116.03 86.40 116.11 85.36 116.21 84.33 C 116.92 84.29 118.35 84.20 119.06 84.16 C 118.71 79.45 117.97 74.72 118.36 69.99 C 119.64 64.92 121.72 60.07 123.44 55.14 C 125.27 54.43 126.86 53.32 127.51 51.39 Z" />
<path fill="#005073" opacity="1.00" d=" M 69.35 63.45 C 72.07 62.41 74.95 65.21 74.01 67.92 C 73.30 70.15 70.18 71.24 68.33 69.66 C 65.74 68.31 66.68 64.02 69.35 63.45 Z" />
<path fill="#005073" opacity="1.00" d=" M 27.48 75.60 C 29.62 74.84 30.11 79.10 27.86 78.93 C 25.51 79.64 24.81 75.16 27.48 75.60 Z" />
<path fill="#005073" opacity="1.00" d=" M 34.48 75.62 C 35.75 75.25 36.81 75.80 37.39 76.99 C 37.24 79.03 35.32 78.88 33.81 79.06 C 33.91 77.91 33.33 76.43 34.48 75.62 Z" />
<path fill="#005073" opacity="1.00" d=" M 41.71 78.96 C 41.45 77.63 41.36 75.05 43.45 75.59 C 45.24 75.61 44.68 77.51 44.90 78.70 C 44.10 78.77 42.50 78.90 41.71 78.96 Z" />
<path fill="#005073" opacity="1.00" d=" M 50.48 75.59 C 52.42 74.95 53.80 77.75 51.91 78.74 C 50.04 80.87 47.84 75.83 50.48 75.59 Z" />
<path fill="#005073" opacity="1.00" d=" M 56.86 75.76 C 57.98 75.91 59.72 75.10 60.37 76.46 C 61.19 77.55 59.82 78.77 58.99 79.36 C 57.21 78.97 57.22 77.17 56.86 75.76 Z" />
<path fill="#005073" opacity="1.00" d=" M 65.01 75.65 C 66.01 75.69 67.03 75.68 68.01 75.92 C 68.19 76.88 68.24 77.86 68.31 78.83 C 67.54 78.83 65.99 78.82 65.22 78.81 C 65.16 78.02 65.06 76.44 65.01 75.65 Z" />
<path fill="#005073" opacity="1.00" d=" M 72.30 76.25 C 73.55 75.78 76.07 74.89 76.23 77.08 C 76.30 78.92 74.78 79.15 73.34 78.77 C 72.96 77.94 72.61 77.10 72.30 76.25 Z" />
<path fill="#005073" opacity="1.00" d=" M 81.44 75.55 C 83.46 74.91 85.20 77.84 83.00 78.72 C 81.17 80.63 79.42 76.46 81.44 75.55 Z" />
<path fill="#005073" opacity="1.00" d=" M 88.51 75.32 C 89.87 75.62 92.03 75.72 91.82 77.69 C 91.37 78.12 90.47 78.97 90.02 79.40 C 88.03 78.85 88.59 76.84 88.51 75.32 Z" />
<path fill="#005073" opacity="1.00" d=" M 96.72 75.65 C 98.06 75.16 99.04 76.30 100.09 76.90 C 99.40 77.72 98.67 78.53 97.93 79.32 C 96.06 79.04 95.85 77.00 96.72 75.65 Z" />
<path fill="#005073" opacity="1.00" d=" M 105.44 75.55 C 108.37 74.91 107.22 80.54 104.98 78.88 C 103.51 78.68 103.79 75.25 105.44 75.55 Z" />
<path fill="#005073" opacity="1.00" d=" M 112.67 75.48 C 114.94 74.82 116.21 78.12 113.91 78.85 C 111.75 79.88 111.21 76.54 112.67 75.48 Z" />
<path fill="#005073" opacity="1.00" d=" M 23.00 83.87 C 24.81 83.54 25.55 84.91 25.38 86.50 C 24.44 87.92 22.25 87.53 21.63 86.00 C 21.97 85.47 22.66 84.40 23.00 83.87 Z" />
<path fill="#005073" opacity="1.00" d=" M 29.35 85.76 C 30.07 84.33 32.34 82.85 33.05 85.06 C 34.40 86.75 31.63 87.08 30.71 87.67 C 30.37 87.19 29.69 86.24 29.35 85.76 Z" />
<path fill="#005073" opacity="1.00" d=" M 38.24 87.75 C 37.24 86.06 37.45 83.27 40.12 83.92 C 41.96 85.71 40.34 87.55 38.24 87.75 Z" />
<path fill="#005073" opacity="1.00" d=" M 45.51 87.59 C 45.56 86.28 45.05 83.88 47.10 83.88 C 48.65 83.93 49.10 85.43 48.70 86.72 C 47.71 87.23 46.58 87.35 45.51 87.59 Z" />
<path fill="#005073" opacity="1.00" d=" M 53.48 87.69 C 53.60 86.54 52.78 84.89 54.04 84.12 C 55.57 83.27 56.60 84.73 56.84 86.05 C 56.14 87.26 54.66 87.30 53.48 87.69 Z" />
<path fill="#005073" opacity="1.00" d=" M 63.31 87.64 C 61.14 87.39 60.53 85.47 61.83 83.77 C 63.20 83.86 64.09 84.80 64.87 85.81 C 64.48 86.27 63.70 87.18 63.31 87.64 Z" />
<path fill="#005073" opacity="1.00" d=" M 69.19 83.83 C 70.40 84.19 72.76 84.12 72.35 86.10 C 71.76 87.41 70.29 87.22 69.14 87.44 C 69.15 86.54 69.18 84.73 69.19 83.83 Z" />
<path fill="#005073" opacity="1.00" d=" M 77.14 84.41 C 78.25 82.88 80.01 84.66 80.34 85.85 C 79.72 87.05 78.31 87.22 77.23 87.77 C 77.19 86.72 76.06 85.22 77.14 84.41 Z" />
<path fill="#005073" opacity="1.00" d=" M 85.20 84.26 C 86.43 82.87 87.69 84.96 88.21 85.90 C 87.40 87.17 85.90 87.31 84.57 87.58 C 84.85 86.53 84.01 84.90 85.20 84.26 Z" />
<path fill="#005073" opacity="1.00" d=" M 92.49 87.71 C 92.53 86.44 92.18 85.05 92.97 83.93 C 94.24 84.08 95.38 84.59 96.39 85.46 C 95.36 86.62 94.02 87.39 92.49 87.71 Z" />
<path fill="#005073" opacity="1.00" d=" M 100.34 87.33 C 100.35 85.84 99.78 83.80 101.98 83.79 C 103.62 84.41 103.38 86.08 102.96 87.40 C 102.30 87.38 100.99 87.35 100.34 87.33 Z" />
<path fill="#005073" opacity="1.00" d=" M 108.26 87.39 C 108.28 85.91 107.61 83.59 109.90 83.81 C 111.46 84.51 111.03 86.00 110.79 87.34 C 110.15 87.36 108.89 87.38 108.26 87.39 Z" />
</g>
</svg>
