<?xml version="1.0" encoding="UTF-8" ?>
<!DOCTYPE svg PUBLIC "-//W3C//DTD SVG 1.1//EN" "http://www.w3.org/Graphics/SVG/1.1/DTD/svg11.dtd">
<svg width="134pt" height="139pt" viewBox="0 0 134 139" version="1.1" xmlns="http://www.w3.org/2000/svg">
<g id="#262626ff">
</g>
<g id="#f57c51ff">
<path fill="#f57c51" opacity="1.00" d=" M 43.09 11.01 C 59.31 4.68 78.13 5.47 93.72 13.27 C 114.75 23.39 129.40 46.04 128.94 69.52 C 122.62 63.68 116.78 57.35 110.56 51.40 C 110.22 51.78 109.54 52.56 109.19 52.95 C 109.00 51.60 108.80 50.25 108.60 48.90 C 106.82 49.00 104.46 48.44 103.43 50.36 C 102.84 52.00 104.05 53.49 104.57 54.97 C 101.06 58.95 97.36 62.74 93.68 66.57 C 85.98 58.17 77.86 50.13 69.51 42.37 C 68.58 41.43 67.68 40.46 66.80 39.46 C 65.33 40.04 63.18 40.10 62.89 42.06 C 62.40 44.11 64.32 45.44 65.39 46.86 C 62.94 56.77 59.52 66.71 53.01 74.74 C 44.98 67.15 37.32 59.20 29.51 51.39 C 29.07 51.88 28.63 52.36 28.18 52.85 C 27.98 51.56 27.78 50.27 27.57 48.98 C 25.68 48.93 22.42 48.41 22.23 51.12 C 21.40 53.96 24.74 54.70 26.60 55.64 C 32.10 64.87 37.91 74.26 40.14 84.92 C 41.28 89.90 41.68 95.02 41.69 100.13 C 52.19 111.23 63.42 121.62 73.89 132.76 C 59.79 134.38 45.15 131.65 33.04 124.11 C 18.28 115.17 7.37 99.99 3.98 83.03 C 0.38 67.17 3.68 50.00 12.37 36.31 C 19.55 24.88 30.49 15.87 43.09 11.01 Z" />
</g>
<g id="#ffffffff">
<path fill="#ffffff" opacity="1.00" d=" M 62.89 42.06 C 63.18 40.10 65.33 40.04 66.80 39.46 C 67.68 40.46 68.58 41.43 69.51 42.37 C 68.42 43.77 67.29 45.14 66.17 46.51 C 68.71 57.61 72.69 68.87 80.72 77.25 C 85.32 74.05 89.77 70.60 93.68 66.57 C 97.36 62.74 101.06 58.95 104.57 54.97 C 104.05 53.49 102.84 52.00 103.43 50.36 C 104.46 48.44 106.82 49.00 108.60 48.90 C 108.80 50.25 109.00 51.60 109.19 52.95 C 108.02 53.96 106.61 54.60 105.20 55.20 C 101.24 61.42 97.58 67.87 94.62 74.63 C 91.10 82.61 90.01 91.40 89.75 100.04 C 74.00 96.12 57.42 96.12 41.69 100.13 C 41.68 95.02 41.28 89.90 40.14 84.92 C 37.91 74.26 32.10 64.87 26.60 55.64 C 24.74 54.70 21.40 53.96 22.23 51.12 C 22.42 48.41 25.68 48.93 27.57 48.98 C 27.78 50.27 27.98 51.56 28.18 52.85 C 27.78 53.29 26.97 54.17 26.57 54.62 C 33.73 63.14 41.78 71.00 51.01 77.27 C 51.68 76.43 52.35 75.59 53.01 74.74 C 59.52 66.71 62.94 56.77 65.39 46.86 C 64.32 45.44 62.40 44.11 62.89 42.06 Z" />
</g>
<g id="#d55925ff">
<path fill="#d55925" opacity="1.00" d=" M 69.51 42.37 C 77.86 50.13 85.98 58.17 93.68 66.57 C 89.77 70.60 85.32 74.05 80.72 77.25 C 72.69 68.87 68.71 57.61 66.17 46.51 C 67.29 45.14 68.42 43.77 69.51 42.37 Z" />
<path fill="#d55925" opacity="1.00" d=" M 28.18 52.85 C 28.63 52.36 29.07 51.88 29.51 51.39 C 37.32 59.20 44.98 67.15 53.01 74.74 C 52.35 75.59 51.68 76.43 51.01 77.27 C 41.78 71.00 33.73 63.14 26.57 54.62 C 26.97 54.17 27.78 53.29 28.18 52.85 Z" />
<path fill="#d55925" opacity="1.00" d=" M 110.56 51.40 C 116.78 57.35 122.62 63.68 128.94 69.52 C 129.87 94.78 113.25 119.14 89.96 128.52 C 84.82 130.64 79.41 132.11 73.89 132.76 C 63.42 121.62 52.19 111.23 41.69 100.13 C 57.42 96.12 74.00 96.12 89.75 100.04 C 90.01 91.40 91.10 82.61 94.62 74.63 C 97.58 67.87 101.24 61.42 105.20 55.20 C 106.61 54.60 108.02 53.96 109.19 52.95 C 109.54 52.56 110.22 51.78 110.56 51.40 Z" />
</g>
</svg>
