<?xml version="1.0" encoding="UTF-8" ?>
<!DOCTYPE svg PUBLIC "-//W3C//DTD SVG 1.1//EN" "http://www.w3.org/Graphics/SVG/1.1/DTD/svg11.dtd">
<svg width="223pt" height="216pt" viewBox="0 0 223 216" version="1.1" xmlns="http://www.w3.org/2000/svg">
<g id="#ffffffff">
<path fill="#ffffff" opacity="1.00" d=" M 107.54 47.78 C 113.51 46.49 120.01 46.72 125.62 49.33 C 133.75 52.98 139.84 60.76 141.41 69.54 C 144.33 83.61 134.07 98.56 120.01 101.23 C 105.95 104.56 90.55 94.64 87.68 80.50 C 83.99 66.55 93.60 51.11 107.54 47.78 Z" />
<path fill="#ffffff" opacity="1.00" d=" M 82.55 106.56 C 87.59 104.25 93.31 104.00 98.75 104.45 C 108.18 109.04 119.60 109.44 129.08 104.79 C 136.48 103.34 144.74 104.73 150.94 109.24 C 157.88 114.10 162.08 122.55 161.86 131.01 C 161.84 142.09 161.88 153.17 161.83 164.25 C 130.19 164.24 98.56 164.25 66.92 164.26 C 66.89 153.18 66.93 142.10 66.89 131.02 C 66.56 120.72 73.06 110.58 82.55 106.56 Z" />
</g>
<g id="#063158ff">
<path fill="#063158" opacity="1.00" d=" M 103.62 5.83 C 123.79 3.77 144.56 7.94 162.46 17.47 C 182.67 28.10 199.14 45.61 208.57 66.40 C 216.83 84.29 219.64 104.54 217.00 124.04 C 214.00 146.60 203.29 168.07 187.04 184.00 C 171.00 200.03 149.56 210.54 127.07 213.40 C 107.26 215.95 86.71 212.83 68.67 204.19 C 47.14 194.04 29.34 176.24 19.15 154.73 C 7.64 130.85 5.91 102.52 14.16 77.35 C 20.99 56.27 34.75 37.54 52.81 24.70 C 67.69 14.11 85.40 7.41 103.62 5.83 M 107.54 47.78 C 93.60 51.11 83.99 66.55 87.68 80.50 C 90.55 94.64 105.95 104.56 120.01 101.23 C 134.07 98.56 144.33 83.61 141.41 69.54 C 139.84 60.76 133.75 52.98 125.62 49.33 C 120.01 46.72 113.51 46.49 107.54 47.78 M 82.55 106.56 C 73.06 110.58 66.56 120.72 66.89 131.02 C 66.93 142.10 66.89 153.18 66.92 164.26 C 98.56 164.25 130.19 164.24 161.83 164.25 C 161.88 153.17 161.84 142.09 161.86 131.01 C 162.08 122.55 157.88 114.10 150.94 109.24 C 144.74 104.73 136.48 103.34 129.08 104.79 C 119.60 109.44 108.18 109.04 98.75 104.45 C 93.31 104.00 87.59 104.25 82.55 106.56 Z" />
</g>
</svg>
