<?xml version="1.0" encoding="UTF-8" ?>
<!DOCTYPE svg PUBLIC "-//W3C//DTD SVG 1.1//EN" "http://www.w3.org/Graphics/SVG/1.1/DTD/svg11.dtd">
<svg width="138pt" height="138pt" viewBox="0 0 138 138" version="1.1" xmlns="http://www.w3.org/2000/svg">
<g id="#262626ff">
</g>
<g id="#f7be5bff">
<path fill="#f7be5b" opacity="1.00" d=" M 50.00 10.96 C 62.28 7.03 75.77 7.09 88.03 11.06 C 112.79 18.61 131.66 42.85 131.91 68.87 C 126.79 64.87 122.87 59.57 117.71 55.60 C 116.72 52.54 113.17 50.48 110.09 51.85 C 107.93 52.40 106.95 54.47 106.04 56.28 C 102.65 53.45 99.94 49.86 96.19 47.47 C 95.12 45.98 94.07 44.17 91.99 44.13 C 87.56 42.96 83.28 48.45 85.77 52.35 C 86.56 53.60 86.82 55.01 86.49 56.46 C 82.50 53.10 79.23 48.99 75.15 45.74 C 74.87 46.83 74.57 47.91 74.26 48.99 C 74.66 45.98 73.23 42.19 69.95 41.52 C 66.29 40.69 62.60 44.33 63.02 47.99 C 63.41 49.96 64.93 51.42 66.11 52.96 C 66.12 55.69 66.12 58.43 66.19 61.16 C 61.71 57.21 57.90 52.56 53.27 48.77 C 52.92 49.80 52.55 50.81 52.14 51.82 C 52.66 49.08 52.03 45.34 48.97 44.43 C 45.22 42.80 40.41 45.92 40.80 50.07 C 40.75 52.59 42.80 54.36 44.79 55.50 C 46.40 60.48 47.17 65.68 48.47 70.74 C 47.47 70.45 46.46 70.11 45.77 69.29 C 41.18 64.87 36.97 60.04 32.12 55.90 C 31.72 56.92 31.35 57.95 31.00 59.00 C 31.35 56.47 30.74 52.83 27.92 51.99 C 23.42 49.51 17.74 55.25 20.26 59.74 C 20.92 62.17 23.53 62.44 25.27 63.68 C 31.60 76.01 37.39 88.61 43.63 100.99 C 54.38 112.12 65.60 122.81 76.32 133.98 C 51.82 137.53 26.26 124.45 14.12 103.00 C 6.11 89.23 3.41 72.35 7.30 56.86 C 12.08 35.47 29.01 17.28 50.00 10.96 Z" />
</g>
<g id="#ffffffff">
<path fill="#ffffff" opacity="1.00" d=" M 63.02 47.99 C 62.60 44.33 66.29 40.69 69.95 41.52 C 73.23 42.19 74.66 45.98 74.26 48.99 C 73.61 50.41 72.47 51.58 71.41 52.71 C 71.75 58.11 71.07 63.59 71.77 68.95 C 72.57 74.66 81.89 75.07 83.55 69.66 C 84.47 65.25 85.75 60.91 86.49 56.46 C 86.82 55.01 86.56 53.60 85.77 52.35 C 83.28 48.45 87.56 42.96 91.99 44.13 C 94.07 44.17 95.12 45.98 96.19 47.47 C 97.52 50.63 95.74 54.34 92.52 55.37 C 91.37 60.93 89.92 66.43 88.81 72.00 C 88.39 77.30 95.99 80.63 99.45 76.42 C 102.43 71.41 104.64 65.97 107.32 60.79 C 106.79 59.32 106.42 57.80 106.04 56.28 C 106.95 54.47 107.93 52.40 110.09 51.85 C 113.17 50.48 116.72 52.54 117.71 55.60 C 118.56 59.23 115.91 62.67 112.32 63.16 C 106.20 75.73 100.05 88.27 93.98 100.86 C 77.31 98.49 60.27 98.28 43.63 100.99 C 37.39 88.61 31.60 76.01 25.27 63.68 C 23.53 62.44 20.92 62.17 20.26 59.74 C 17.74 55.25 23.42 49.51 27.92 51.99 C 30.74 52.83 31.35 56.47 31.00 59.00 C 30.86 59.46 30.57 60.38 30.43 60.84 C 32.99 65.87 35.26 71.07 37.95 76.02 C 41.49 81.21 50.83 76.81 48.47 70.74 C 47.17 65.68 46.40 60.48 44.79 55.50 C 42.80 54.36 40.75 52.59 40.80 50.07 C 40.41 45.92 45.22 42.80 48.97 44.43 C 52.03 45.34 52.66 49.08 52.14 51.82 C 51.76 52.40 50.98 53.56 50.59 54.14 C 51.43 58.26 52.58 62.31 53.36 66.45 C 54.11 68.55 54.18 71.39 56.42 72.52 C 59.82 74.75 65.05 73.02 66.16 69.04 C 66.38 66.42 66.24 63.79 66.19 61.16 C 66.12 58.43 66.12 55.69 66.11 52.96 C 64.93 51.42 63.41 49.96 63.02 47.99 Z" />
</g>
<g id="#d8992fff">
<path fill="#d8992f" opacity="1.00" d=" M 75.15 45.74 C 79.23 48.99 82.50 53.10 86.49 56.46 C 85.75 60.91 84.47 65.25 83.55 69.66 C 81.89 75.07 72.57 74.66 71.77 68.95 C 71.07 63.59 71.75 58.11 71.41 52.71 C 72.47 51.58 73.61 50.41 74.26 48.99 C 74.57 47.91 74.87 46.83 75.15 45.74 Z" />
<path fill="#d8992f" opacity="1.00" d=" M 96.19 47.47 C 99.94 49.86 102.65 53.45 106.04 56.28 C 106.42 57.80 106.79 59.32 107.32 60.79 C 104.64 65.97 102.43 71.41 99.45 76.42 C 95.99 80.63 88.39 77.30 88.81 72.00 C 89.92 66.43 91.37 60.93 92.52 55.37 C 95.74 54.34 97.52 50.63 96.19 47.47 Z" />
<path fill="#d8992f" opacity="1.00" d=" M 53.27 48.77 C 57.90 52.56 61.71 57.21 66.19 61.16 C 66.24 63.79 66.38 66.42 66.16 69.04 C 65.05 73.02 59.82 74.75 56.42 72.52 C 54.18 71.39 54.11 68.55 53.36 66.45 C 52.58 62.31 51.43 58.26 50.59 54.14 C 50.98 53.56 51.76 52.40 52.14 51.82 C 52.55 50.81 52.92 49.80 53.27 48.77 Z" />
<path fill="#d8992f" opacity="1.00" d=" M 32.12 55.90 C 36.97 60.04 41.18 64.87 45.77 69.29 C 46.46 70.11 47.47 70.45 48.47 70.74 C 50.83 76.81 41.49 81.21 37.95 76.02 C 35.26 71.07 32.99 65.87 30.43 60.84 C 30.57 60.38 30.86 59.46 31.00 59.00 C 31.35 57.95 31.72 56.92 32.12 55.90 Z" />
<path fill="#d8992f" opacity="1.00" d=" M 117.71 55.60 C 122.87 59.57 126.79 64.87 131.91 68.87 C 132.56 80.67 129.69 92.57 123.72 102.77 C 114.00 119.78 95.95 132.18 76.32 133.98 C 65.60 122.81 54.38 112.12 43.63 100.99 C 60.27 98.28 77.31 98.49 93.98 100.86 C 100.05 88.27 106.20 75.73 112.32 63.16 C 115.91 62.67 118.56 59.23 117.71 55.60 Z" />
</g>
</svg>
